<svg id="behance" xmlns="http://www.w3.org/2000/svg" width="59.192" height="36.497" viewBox="0 0 59.192 36.497">
  <path id="Trazado_3" data-name="Trazado 3" d="M25.051,103.221a9.9,9.9,0,0,0,1.576-5.537,10.048,10.048,0,0,0-10.092-9.8H1.293A1.293,1.293,0,0,0,0,89.181V122.7a1.293,1.293,0,0,0,1.293,1.293H18.318a11.428,11.428,0,0,0,6.733-20.77ZM6.686,94.574h9.978a3.277,3.277,0,1,1,0,6.554H6.686Zm11.78,22.73H6.686v-9.489h11.78a4.745,4.745,0,0,1,0,9.489Z" transform="translate(0 -87.888)" fill="#0067ff"/>
  <path id="Trazado_4" data-name="Trazado 4" d="M273.462,165.462a13.719,13.719,0,1,0-13.712,14.154,13.587,13.587,0,0,0,11.4-6.292,14.282,14.282,0,0,0,.864-1.533.581.581,0,0,0-.523-.832l-6.741-.017a.569.569,0,0,0-.4.164,6.379,6.379,0,0,1-4.607,1.823,7.149,7.149,0,0,1-6.857-5.846H272.12a1.342,1.342,0,0,0,1.342-1.342Zm-13.712-7.468a6.931,6.931,0,0,1,5.873,3.376H253.877A6.93,6.93,0,0,1,259.749,157.994Z" transform="translate(-214.27 -143.12)" fill="#0067ff"/>
  <path id="Trazado_5" data-name="Trazado 5" d="M307.4,104H295.242a1.028,1.028,0,0,1-1.027-1.027V99.92a1.028,1.028,0,0,1,1.027-1.028H307.4a1.028,1.028,0,0,1,1.027,1.028v3.051A1.027,1.027,0,0,1,307.4,104Z" transform="translate(-256.227 -97.472)" fill="#0067ff"/>
</svg>
