<svg id="dribbble-icon-1" xmlns="http://www.w3.org/2000/svg" width="36.539" height="36.497" viewBox="0 0 36.539 36.497">
  <path id="Trazado_2151" data-name="Trazado 2151" d="M25.642,8.5A17.035,17.035,0,1,1,8.6,25.542,17.029,17.029,0,0,1,25.642,8.5Z" transform="translate(-7.373 -7.287)" fill="#e74d89"/>
  <path id="Trazado_2152" data-name="Trazado 2152" d="M18.27,36.5a18.248,18.248,0,1,1,18.27-18.255A18.271,18.271,0,0,1,18.27,36.5Zm15.4-15.758a23.012,23.012,0,0,0-9.72-.671,66.579,66.579,0,0,1,3.026,11.1A15.494,15.494,0,0,0,33.67,20.739ZM24.364,32.614A64.715,64.715,0,0,0,21.039,20.8a.265.265,0,0,1-.1.029c-8.807,3.069-11.961,9.163-12.246,9.734a15.544,15.544,0,0,0,9.577,3.283,15.245,15.245,0,0,0,6.095-1.227ZM6.68,28.689c.357-.6,4.639-7.679,12.689-10.291.2-.071.414-.128.614-.186-.385-.885-.814-1.77-1.27-2.641A57.644,57.644,0,0,1,2.669,17.784c0,.157-.014.314-.014.471A15.6,15.6,0,0,0,6.68,28.689ZM3,15.073a57.766,57.766,0,0,0,14.43-1.9,99.624,99.624,0,0,0-5.781-9.006A15.629,15.629,0,0,0,3,15.073ZM14.616,3.112a82.059,82.059,0,0,1,5.823,9.121c5.552-2.084,7.893-5.224,8.179-5.624A15.557,15.557,0,0,0,18.27,2.683,16.2,16.2,0,0,0,14.616,3.112Zm15.729,5.3a20.779,20.779,0,0,1-8.707,6.152c.357.742.714,1.5,1.042,2.255.114.271.228.542.343.8a36.658,36.658,0,0,1,10.862.5A15.523,15.523,0,0,0,30.345,8.407Z" fill="#b2215a"/>
</svg>
