<svg xmlns="http://www.w3.org/2000/svg" width="36.497" height="36.497" viewBox="0 0 36.497 36.497">
  <path id="linkedin" d="M33.2,0H3.3A3.3,3.3,0,0,0,0,3.3V33.2a3.3,3.3,0,0,0,3.3,3.3H33.2a3.3,3.3,0,0,0,3.3-3.3V3.3A3.3,3.3,0,0,0,33.2,0Zm-21.9,31.514a.961.961,0,0,1-.961.961H6.243a.961.961,0,0,1-.961-.961V14.37a.961.961,0,0,1,.961-.961h4.09a.961.961,0,0,1,.961.961ZM8.288,11.793a3.885,3.885,0,1,1,3.885-3.885A3.885,3.885,0,0,1,8.288,11.793Zm24.378,19.8a.883.883,0,0,1-.883.883H27.394a.883.883,0,0,1-.883-.883V23.549c0-1.2.352-5.257-3.135-5.257-2.7,0-3.253,2.777-3.363,4.023v9.275a.883.883,0,0,1-.883.883H14.885A.883.883,0,0,1,14,31.591v-17.3a.883.883,0,0,1,.883-.883h4.245a.883.883,0,0,1,.883.883v1.5c1-1.505,2.493-2.667,5.667-2.667,7.027,0,6.987,6.565,6.987,10.172v8.3Z" fill="#0077b7"/>
</svg>
