<svg id="sobre" xmlns="http://www.w3.org/2000/svg" width="16" height="9.722" viewBox="0 0 16 9.722">
  <path id="path" d="M15.989,101.263a.821.821,0,0,0-.82-.818h0l-14.35.02a.819.819,0,0,0-.818.821l.011,8.063a.819.819,0,0,0,.82.818h0l14.35-.02a.821.821,0,0,0,.818-.821Zm-1.72,0L8,105.623l-6.281-4.34Zm-3.618,5.18,3.718,2.883-12.749.018,3.741-2.9a.41.41,0,0,0-.5-.648L.83,108.922l-.01-7.265,6.948,4.8a.41.41,0,0,0,.467,0l6.935-4.821.01,7.283L11.154,105.8a.41.41,0,0,0-.5.648Z" transform="translate(0 -100.445)" fill="#282828"/>
</svg>
